<svg xmlns="http://www.w3.org/2000/svg" width="80" height="54" viewBox="0 0 80 54">
    <g fill="#FFF" fill-rule="evenodd">
        <path fill-rule="nonzero" d="M73.795 53.288c-3.706 0-5.905-1.886-6.073-4.602h3.544c0 .905.505 2.11 2.698 2.186 1.52 0 2.36-.906 2.36-1.586-.168-1.056-1.52-1.13-2.865-1.361-1.52-.22-2.697-.525-3.544-.9-1.178-.606-1.857-1.892-1.857-3.247 0-2.417 2.03-4.302 5.57-4.302 3.375 0 5.568 1.735 5.73 4.377h-3.37c0-.675-.168-1.811-2.193-1.811-1.351 0-2.192.225-2.36 1.205 0 1.361 2.865 1.286 5.058 1.811 2.024.53 3.376 1.811 3.376 3.628 0 3.322-2.698 4.602-6.074 4.602M9.211 31l11.636-6.718 6.242 10.646H11.404"/>
        <path d="M31.957 39.566V53h3.395V39.566z"/>
        <path fill-rule="nonzero" d="M3.81 46.367c0 2.111 1.857 3.847 3.875 3.847 2.199 0 3.88-1.736 3.88-3.847 0-2.035-1.681-3.846-3.88-3.846-2.018 0-3.875 1.81-3.875 3.846m3.707 6.944C3.81 53.311.61 50.214.61 46.367c0-3.846 3.201-6.868 6.908-6.868 1.52 0 2.871.38 4.049 1.205v-1.055h3.376v13.357h-3.376v-.83c-1.01.755-2.53 1.135-4.049 1.135M52.555 34.925L36.365 6.85 48.002.056l20.238 34.87M19.327 46.367c0 2.111 1.688 3.847 3.88 3.847 2.02 0 3.881-1.736 3.881-3.847 0-2.035-1.862-3.846-3.88-3.846-2.193 0-3.88 1.81-3.88 3.846m3.712 6.944c-3.881 0-6.915-3.097-6.915-6.944 0-3.846 3.034-6.868 6.915-6.868 1.514 0 2.865.38 4.048 1.205v-5.658h3.37v17.96h-3.37v-.83c-1.183.755-2.534 1.135-4.048 1.135M22.873 19l11.805-6.637 12.987 22.561H35.351v3.322h-3.37v-3.322M77.682 38.35c-.847 0-1.688-.755-1.688-1.66 0-.906.84-1.661 1.688-1.661 1.01 0 1.688.755 1.688 1.66 0 .906-.679 1.662-1.688 1.662m0-3.091c-.847 0-1.352.674-1.352 1.43 0 .755.505 1.436 1.352 1.436.84 0 1.345-.68 1.345-1.436 0-.756-.504-1.43-1.345-1.43"/>
        <path fill-rule="nonzero" d="M78.03 37.601l-.337-.755h-.336v.755h-.255v-1.81h.76c.168 0 .504.23.504.53 0 .3-.168.45-.336.525l.336.755m-.673-1.58h-.336v.6h.336c.337 0 .337-.075.337-.3 0-.156 0-.3-.337-.3M55.407 46.367c0 2.111 1.688 3.847 3.88 3.847 2.025 0 3.876-1.736 3.876-3.847 0-2.035-1.85-3.846-3.875-3.846-2.193 0-3.88 1.81-3.88 3.846m3.706 6.944c-3.875 0-6.909-3.097-6.909-6.944 0-3.846 3.034-6.868 6.909-6.868 1.52 0 2.871.38 4.049 1.205v-1.055h3.207v13.357h-3.207v-.83c-1.178.755-2.53 1.135-4.05 1.135M39.902 46.367c0 2.111 1.856 3.847 3.88 3.847 2.193 0 3.881-1.736 3.881-3.847 0-2.035-1.688-3.846-3.88-3.846-2.025 0-3.88 1.81-3.88 3.846zm7.761-11.32h3.37v17.959h-3.37v-.83c-1.015.755-2.366 1.135-3.88 1.135-3.88 0-7.083-3.097-7.083-6.944 0-3.846 3.202-6.868 7.083-6.868 1.514 0 2.865.38 3.88 1.205v-5.658z"/>
    </g>
</svg>
